<svg xmlns="http://www.w3.org/2000/svg" xmlns:xlink="http://www.w3.org/1999/xlink" version="1.1" width="256" height="256" viewBox="0 0 256 256" xml:space="preserve">
<g style="stroke: none; stroke-width: 0; stroke-dasharray: none; stroke-linecap: butt; stroke-linejoin: miter; stroke-miterlimit: 10; fill: none; fill-rule: nonzero; opacity: 1;" transform="translate(1.4065934065934016 1.4065934065934016) scale(2.81 2.81)">
	<path d="M 52.925 44.314 c -1.02 -0.675 -2.445 -1.022 -3.688 -1.342 c 1.47 -0.324 2.856 -0.657 4.437 -0.492 C 55.455 42.78 54.457 45.223 52.925 44.314 L 52.925 44.314 z" style="stroke: none; stroke-width: 1; stroke-dasharray: none; stroke-linecap: butt; stroke-linejoin: miter; stroke-miterlimit: 10; fill: rgb(0,0,0); fill-rule: nonzero; opacity: 1;" transform=" matrix(1 0 0 1 0 0) " stroke-linecap="round"/>
	<path d="M 36.116 39.617 c 0 1.734 -0.917 3.51 -2.1 5.273 c 2.585 1.681 4.487 3.701 4.997 6.413 c -3.882 -4.261 -7.611 -2.806 -8.915 -0.869 l 0 -0.001 c -1.402 1.851 -1.442 7.474 2.822 8.972 c 9.875 3.469 13.159 -8.886 12.789 -19.787 H 36.116 z" style="stroke: none; stroke-width: 1; stroke-dasharray: none; stroke-linecap: butt; stroke-linejoin: miter; stroke-miterlimit: 10; fill: rgb(0,0,0); fill-rule: nonzero; opacity: 1;" transform=" matrix(1 0 0 1 0 0) " stroke-linecap="round"/>
	<path d="M 47.385 37.76 l 9.01 0 c 0.412 -2.326 1.923 -5.523 3.798 -7.76 H 31.187 c 2.345 2.323 4.266 5.558 4.884 7.76 l 9.581 0 H 47.385 z" style="stroke: none; stroke-width: 1; stroke-dasharray: none; stroke-linecap: butt; stroke-linejoin: miter; stroke-miterlimit: 10; fill: rgb(0,0,0); fill-rule: nonzero; opacity: 1;" transform=" matrix(1 0 0 1 0 0) " stroke-linecap="round"/>
	<path d="M 60.75 46.855 c -2.174 -2.222 -3.55 -4.622 -3.959 -7.238 h -1.894 c 0.44 2.38 1.717 4.574 3.708 6.608 c -0.612 1.544 -2.011 2.294 -4.131 2.319 c -1.591 4.99 3.58 7 -1.56 8.765 c -3.396 0.937 -6.294 0.786 -8.803 -0.216 c -0.086 0.135 -0.165 0.278 -0.255 0.409 c 2.994 1.742 6.569 2.21 10.907 1.013 c 5.408 -1.856 -0.032 -3.971 1.642 -9.221 C 58.634 49.268 60.107 48.479 60.75 46.855 z" style="stroke: none; stroke-width: 1; stroke-dasharray: none; stroke-linecap: butt; stroke-linejoin: miter; stroke-miterlimit: 10; fill: rgb(0,0,0); fill-rule: nonzero; opacity: 1;" transform=" matrix(1 0 0 1 0 0) " stroke-linecap="round"/>
</g>
</svg>