<svg xmlns="http://www.w3.org/2000/svg" xmlns:xlink="http://www.w3.org/1999/xlink" version="1.1" width="256" height="256" viewBox="0 0 256 256" xml:space="preserve">
<g style="stroke: none; stroke-width: 0; stroke-dasharray: none; stroke-linecap: butt; stroke-linejoin: miter; stroke-miterlimit: 10; fill: none; fill-rule: nonzero; opacity: 1;" transform="translate(0.4065934065934016 1.4065934065934016) scale(2.81 2.81)">
	<path d="M 52.552 44.994 c -0.972 -0.643 -2.33 -0.974 -3.515 -1.278 c 1.401 -0.309 2.721 -0.626 4.228 -0.469 C 54.963 43.533 54.012 45.86 52.552 44.994 L 52.552 44.994 z" style="stroke: none; stroke-width: 1; stroke-dasharray: none; stroke-linecap: butt; stroke-linejoin: miter; stroke-miterlimit: 10; fill: rgb(0,0,0); fill-rule: nonzero; opacity: 1;" transform=" matrix(1 0 0 1 0 0) " stroke-linecap="round"/>
	<path d="M 36.534 40.518 c 0 1.652 -0.874 3.345 -2.001 5.025 c 2.463 1.602 4.276 3.527 4.762 6.111 c -3.699 -4.061 -7.253 -2.674 -8.495 -0.828 l 0 -0.001 c -1.336 1.764 -1.374 7.122 2.689 8.549 c 9.411 3.306 12.539 -8.468 12.187 -18.856 H 36.534 z" style="stroke: none; stroke-width: 1; stroke-dasharray: none; stroke-linecap: butt; stroke-linejoin: miter; stroke-miterlimit: 10; fill: rgb(0,0,0); fill-rule: nonzero; opacity: 1;" transform=" matrix(1 0 0 1 0 0) " stroke-linecap="round"/>
	<polygon points="52.89,32.49 50.93,28.5 46.36,32.17 41.8,28.5 39.9,32.49 33.07,29.55 36.68,38.75 46.33,38.75 46.39,38.75 56.05,38.75 59.66,29.55 " style="stroke: none; stroke-width: 1; stroke-dasharray: none; stroke-linecap: butt; stroke-linejoin: miter; stroke-miterlimit: 10; fill: rgb(0,0,0); fill-rule: nonzero; opacity: 1;" transform="  matrix(1 0 0 1 0 0) "/>
	<path d="M 55.552 51.763 c -0.005 -0.616 0.081 -1.287 0.316 -2.024 c 2.124 -0.025 3.528 -0.777 4.141 -2.325 c -2.072 -2.118 -3.382 -4.405 -3.773 -6.897 h -1.804 c 0.419 2.268 1.637 4.358 3.533 6.297 c -0.583 1.471 -1.917 2.186 -3.936 2.21 l -3.703 0.228 l -0.653 3.545 l -2.986 -2.128 c -0.53 2.237 -1.302 4.25 -2.357 5.823 c 3.287 5.413 10.336 6.675 14.722 2.611 c 0.816 -0.756 0.858 -2.045 0.126 -2.883 C 57.7 54.531 56.473 53.07 55.552 51.763 z" style="stroke: none; stroke-width: 1; stroke-dasharray: none; stroke-linecap: butt; stroke-linejoin: miter; stroke-miterlimit: 10; fill: rgb(0,0,0); fill-rule: nonzero; opacity: 1;" transform=" matrix(1 0 0 1 0 0) " stroke-linecap="round"/>
</g>
</svg>
