<svg xmlns="http://www.w3.org/2000/svg" xmlns:xlink="http://www.w3.org/1999/xlink" version="1.1" width="256" height="256" viewBox="0 0 256 256" xml:space="preserve">
<g style="stroke: none; stroke-width: 0; stroke-dasharray: none; stroke-linecap: butt; stroke-linejoin: miter; stroke-miterlimit: 10; fill: none; fill-rule: nonzero; opacity: 1;" transform="translate(0 0) scale(2.81 2.81)">
	<path d="M 52.925 47.449 c -1.02 -0.675 -2.445 -1.022 -3.688 -1.342 c 1.47 -0.324 2.856 -0.657 4.437 -0.492 C 55.455 45.915 54.457 48.358 52.925 47.449 L 52.925 47.449 z" style="stroke: none; stroke-width: 1; stroke-dasharray: none; stroke-linecap: butt; stroke-linejoin: miter; stroke-miterlimit: 10; fill: rgb(0,0,0); fill-rule: nonzero; opacity: 1;" transform=" matrix(1 0 0 1 0 0) " stroke-linecap="round"/>
	<path d="M 36.116 42.752 c 0 0.193 -0.011 0.386 -0.033 0.579 c -0.323 2.872 0.104 5.802 1.72 8.198 c 0.591 0.876 1.009 1.839 1.21 2.909 c -3.882 -4.261 -7.611 -2.806 -8.915 -0.869 l 0 -0.001 c -1.402 1.851 -1.442 7.474 2.822 8.972 c 9.875 3.469 13.159 -8.886 12.789 -19.787 H 36.116 z" style="stroke: none; stroke-width: 1; stroke-dasharray: none; stroke-linecap: butt; stroke-linejoin: miter; stroke-miterlimit: 10; fill: rgb(0,0,0); fill-rule: nonzero; opacity: 1;" transform=" matrix(1 0 0 1 0 0) " stroke-linecap="round"/>
	<path d="M 60.75 49.695 c -2.174 -2.132 -3.55 -4.434 -3.959 -6.943 h -1.894 c 0.44 2.283 1.717 4.388 3.708 6.34 c -0.612 1.481 -2.011 2.201 -4.131 2.225 c -1.591 4.787 2.312 6.39 -2.828 8.083 c -3.396 0.899 -5.026 1.08 -7.535 0.119 c -0.086 0.13 -0.165 0.266 -0.255 0.392 c 2.994 1.671 5.301 1.794 9.639 0.645 c 5.408 -1.781 1.236 -3.484 2.91 -8.52 C 58.634 52.011 60.107 51.254 60.75 49.695 z" style="stroke: none; stroke-width: 1; stroke-dasharray: none; stroke-linecap: butt; stroke-linejoin: miter; stroke-miterlimit: 10; fill: rgb(0,0,0); fill-rule: nonzero; opacity: 1;" transform=" matrix(1 0 0 1 0 0) " stroke-linecap="round"/>
	<path d="M 58.943 29.745 c 0 -1.764 -1.585 -3.157 -3.409 -2.833 c -1.157 0.206 -2.103 1.157 -2.306 2.314 c -0.271 1.55 0.7 2.909 2.077 3.286 c -5.302 3.256 -12.314 4.693 -20.666 4.703 l 1.476 3.537 l 20.675 0 c 1.633 -3.335 2.196 -7.047 2.149 -10.974 C 58.94 29.766 58.943 29.756 58.943 29.745 z" style="stroke: none; stroke-width: 1; stroke-dasharray: none; stroke-linecap: butt; stroke-linejoin: miter; stroke-miterlimit: 10; fill: rgb(0,0,0); fill-rule: nonzero; opacity: 1;" transform=" matrix(1 0 0 1 0 0) " stroke-linecap="round"/>
</g>
</svg>
