<svg version="1.1" xmlns="http://www.w3.org/2000/svg" viewBox="132 166 857 109" xml:space="preserve">
<g id="Object">
<g>
		<g>
			<g>
				
					<linearGradient id="SVGID_00000018945956613608833940000012365270945439193740_" gradientUnits="userSpaceOnUse" x1="457.1983" y1="221.3225" x2="664.193" y2="221.3225">
					<stop offset="0" style="stop-color:#B3AF82" />
					<stop offset="0.1507" style="stop-color:#B3AF82" />
					<stop offset="0.316" style="stop-color:#9E9A6E" />
					<stop offset="0.6129" style="stop-color:#857F55" />
					<stop offset="0.7204" style="stop-color:#555533" />
					<stop offset="0.8387" style="stop-color:#857F55" />
					<stop offset="1" style="stop-color:#B3AF82" />
				</linearGradient>
				<path style="fill:url(#SVGID_00000018945956613608833940000012365270945439193740_);" d="M567.426,234.358      c0,0,0.337,0.245,0.994,0.722c0.654,0.481,1.638,1.182,2.934,2.092c2.603,1.8,6.466,4.444,11.721,7.348      c2.631,1.441,5.61,2.949,8.976,4.342c1.682,0.698,3.461,1.363,5.333,1.987c1.877,0.605,3.843,1.183,5.907,1.662      c2.065,0.474,4.219,0.875,6.459,1.173c2.241,0.285,4.566,0.458,6.961,0.51c0.599,0.003,1.202,0.027,1.809,0.014      c0.607-0.012,1.219-0.024,1.834-0.036c0.615-0.032,1.234-0.064,1.857-0.096c0.623-0.026,1.248-0.099,1.878-0.147      c2.518-0.23,5.089-0.597,7.699-1.106c2.599-0.514,5.221-1.214,7.819-2.14c2.601-0.917,5.162-2.1,7.615-3.556      c1.215-0.745,2.417-1.537,3.554-2.432c1.136-0.895,2.228-1.862,3.251-2.913c2.017-2.121,3.785-4.556,5.032-7.298      c1.254-2.733,2.052-5.729,2.267-8.835c0.043-0.386,0.038-0.778,0.059-1.168c0.024-0.39,0.016-0.782,0.011-1.175l-0.005-0.589      c-0.006-0.196-0.024-0.391-0.036-0.586c-0.026-0.391-0.053-0.782-0.079-1.174c-0.175-1.561-0.48-3.111-0.934-4.63      c-0.481-1.51-1.114-2.98-1.89-4.388c-0.768-1.413-1.721-2.739-2.776-3.992c-1.061-1.25-2.235-2.427-3.519-3.504      c-1.286-1.075-2.663-2.064-4.112-2.969c-2.895-1.816-6.09-3.258-9.426-4.381c-3.341-1.113-6.843-1.905-10.401-2.221      c-3.593-0.321-7.249-0.277-10.905,0.135c-3.654,0.44-7.303,1.242-10.903,2.364c-7.205,2.263-14.175,5.748-21.041,9.699      c-6.879,3.944-13.69,8.353-20.823,12.528c-1.778,1.028-3.55,2.053-5.317,3.075c-1.754,1.02-3.499,2.059-5.239,3.093      c-3.48,2.071-6.943,4.143-10.414,6.158c-6.94,4.03-13.914,7.849-21.059,11.076c-3.571,1.612-7.185,3.075-10.849,4.319      c-3.662,1.245-7.38,2.265-11.14,2.96c-3.757,0.695-7.558,1.065-11.333,0.988c-0.472-0.012-0.943-0.015-1.413-0.035      c-0.47-0.036-0.94-0.072-1.408-0.108l-0.702-0.055l-0.351-0.027l-0.349-0.046c-0.465-0.064-0.93-0.127-1.394-0.191l-0.695-0.096      c-0.232-0.03-0.458-0.087-0.687-0.129c-0.456-0.091-0.912-0.183-1.366-0.274c-0.913-0.157-1.805-0.429-2.7-0.664      c-0.9-0.214-1.768-0.552-2.642-0.845l-0.654-0.226c-0.215-0.083-0.426-0.18-0.639-0.269c-0.425-0.182-0.849-0.364-1.272-0.545      c-0.428-0.168-0.832-0.395-1.242-0.606c-0.408-0.213-0.816-0.426-1.223-0.639c-0.4-0.227-0.784-0.483-1.175-0.723l-0.583-0.366      l-0.291-0.183c-0.095-0.065-0.185-0.136-0.278-0.204c-0.368-0.275-0.735-0.549-1.102-0.822c-0.18-0.141-0.372-0.265-0.542-0.42      l-0.514-0.454c-0.341-0.304-0.682-0.607-1.023-0.909c-0.315-0.33-0.63-0.659-0.944-0.987l-0.469-0.493      c-0.149-0.171-0.287-0.351-0.431-0.526c-0.284-0.353-0.567-0.705-0.85-1.057c-0.265-0.365-0.51-0.744-0.764-1.115l-0.376-0.559      c-0.124-0.187-0.225-0.388-0.338-0.581c-0.219-0.39-0.438-0.779-0.656-1.168c-0.201-0.397-0.378-0.805-0.567-1.207l-0.278-0.604      c-0.09-0.202-0.158-0.413-0.237-0.618c-0.153-0.413-0.305-0.826-0.458-1.238c-0.133-0.418-0.246-0.841-0.369-1.26l-0.18-0.629      c-0.056-0.21-0.093-0.425-0.14-0.636c-0.089-0.425-0.178-0.848-0.266-1.271c-0.071-0.425-0.122-0.853-0.183-1.278l-0.088-0.637      c-0.028-0.212-0.034-0.426-0.052-0.639c-0.03-0.426-0.06-0.85-0.09-1.274c-0.019-0.424-0.01-0.847-0.017-1.27      c-0.001-0.422-0.013-0.844,0.021-1.263c0.024-0.419,0.047-0.837,0.071-1.255c0.021-0.417,0.089-0.829,0.131-1.243l0.073-0.618      l0.037-0.309l0.054-0.305c0.072-0.407,0.144-0.813,0.216-1.218c1.279-6.45,4.306-12.304,8.646-16.646      c2.157-2.107,4.445-3.963,6.826-5.583c0.605-0.391,1.191-0.802,1.801-1.168c0.615-0.359,1.226-0.715,1.833-1.069      c1.245-0.654,2.474-1.306,3.74-1.84c2.514-1.098,5.049-1.997,7.586-2.602c0.627-0.18,1.265-0.294,1.894-0.428      c0.63-0.128,1.252-0.272,1.882-0.353c0.626-0.095,1.249-0.189,1.867-0.283c0.622-0.061,1.239-0.122,1.852-0.182      c0.612-0.073,1.223-0.091,1.829-0.119c0.303-0.014,0.605-0.027,0.905-0.041c0.301-0.016,0.6-0.028,0.899-0.02      c0.597,0.004,1.19,0.008,1.778,0.012l0.44,0.005l0.438,0.025c0.291,0.017,0.581,0.034,0.87,0.051      c0.289,0.017,0.576,0.034,0.863,0.051l0.429,0.027l0.425,0.047c0.566,0.062,1.127,0.124,1.683,0.185      c0.558,0.048,1.103,0.162,1.647,0.242c0.542,0.092,1.083,0.165,1.613,0.271c4.246,0.829,8.079,2.094,11.468,3.548      c3.392,1.455,6.34,3.097,8.897,4.708c5.075,3.299,8.584,6.437,10.862,8.638c1.158,1.085,1.972,1.98,2.536,2.565      c0.56,0.588,0.847,0.889,0.847,0.889s-0.297-0.291-0.877-0.86c-0.583-0.566-1.425-1.432-2.616-2.476      c-2.343-2.12-5.939-5.135-11.062-8.253c-2.581-1.521-5.541-3.059-8.921-4.399c-3.377-1.339-7.174-2.477-11.343-3.18      c-0.52-0.09-1.051-0.147-1.582-0.224c-0.533-0.065-1.067-0.163-1.612-0.196c-0.544-0.046-1.092-0.092-1.645-0.139l-0.415-0.035      l-0.418-0.016c-0.279-0.009-0.56-0.019-0.841-0.028c-0.281-0.009-0.564-0.019-0.847-0.028l-0.426-0.014l-0.428,0.006      c-0.571,0.01-1.147,0.02-1.727,0.031c-0.29-0.001-0.58,0.018-0.872,0.041c-0.291,0.02-0.583,0.041-0.877,0.061      c-0.587,0.041-1.178,0.072-1.769,0.158c-0.592,0.072-1.188,0.145-1.788,0.218c-0.595,0.105-1.194,0.21-1.798,0.316      c-0.606,0.092-1.203,0.246-1.808,0.383c-0.604,0.143-1.216,0.266-1.816,0.454c-2.431,0.638-4.848,1.559-7.237,2.665      c-4.789,2.198-9.362,5.444-13.387,9.518c-0.471,0.522-0.973,1.018-1.404,1.586c-0.222,0.277-0.451,0.55-0.669,0.833      c-0.207,0.292-0.415,0.584-0.623,0.877l-0.313,0.44c-0.099,0.151-0.192,0.306-0.288,0.459c-0.191,0.307-0.383,0.614-0.575,0.923      c-0.188,0.311-0.352,0.638-0.529,0.956c-0.169,0.324-0.363,0.635-0.51,0.973c-0.309,0.667-0.645,1.324-0.906,2.019      c-0.137,0.344-0.283,0.686-0.414,1.035c-0.12,0.353-0.24,0.706-0.361,1.06l-0.181,0.531l-0.152,0.542      c-0.101,0.361-0.202,0.724-0.304,1.087c-0.093,0.365-0.164,0.736-0.248,1.105c-0.078,0.37-0.173,0.738-0.223,1.114      c-0.06,0.375-0.12,0.75-0.18,1.127l-0.045,0.282l-0.028,0.285l-0.057,0.57c-0.032,0.381-0.09,0.76-0.102,1.144      c-0.015,0.383-0.03,0.766-0.045,1.151c-0.026,0.384-0.007,0.769,0.001,1.154c0.013,0.385,0.009,0.772,0.034,1.157      c0.034,0.385,0.068,0.77,0.101,1.156c0.02,0.193,0.027,0.387,0.056,0.579l0.09,0.575c0.062,0.383,0.113,0.769,0.183,1.151      c0.086,0.379,0.172,0.758,0.259,1.139c0.045,0.189,0.081,0.382,0.134,0.57l0.171,0.56c0.116,0.373,0.222,0.75,0.346,1.121      c0.142,0.364,0.284,0.73,0.426,1.095c0.074,0.182,0.135,0.369,0.218,0.547l0.256,0.531c0.173,0.353,0.334,0.713,0.517,1.061      c0.198,0.34,0.397,0.681,0.597,1.022c0.102,0.169,0.192,0.346,0.304,0.509l0.341,0.486c0.23,0.323,0.448,0.654,0.686,0.972      c0.254,0.306,0.509,0.612,0.764,0.919c0.129,0.152,0.251,0.31,0.385,0.458l0.422,0.428c0.28,0.286,0.561,0.572,0.842,0.859      c0.305,0.263,0.611,0.525,0.917,0.789l0.459,0.396c0.151,0.135,0.326,0.242,0.487,0.365c0.329,0.238,0.658,0.477,0.988,0.717      c0.083,0.059,0.163,0.122,0.248,0.178l0.263,0.159l0.526,0.319c0.353,0.21,0.696,0.435,1.057,0.634      c0.369,0.186,0.739,0.372,1.109,0.559c0.371,0.185,0.734,0.386,1.127,0.532c0.386,0.159,0.773,0.319,1.16,0.479      c0.194,0.079,0.386,0.164,0.582,0.237l0.601,0.198c0.805,0.257,1.595,0.558,2.432,0.744c0.829,0.205,1.648,0.448,2.503,0.582      c0.424,0.08,0.848,0.159,1.273,0.239c0.213,0.036,0.424,0.088,0.638,0.113l0.643,0.08c0.429,0.054,0.858,0.107,1.288,0.161      l0.323,0.039l0.326,0.021l0.652,0.042c0.434,0.029,0.87,0.057,1.305,0.086c0.437,0.013,0.876,0.01,1.315,0.016      c3.512,0.033,7.08-0.348,10.638-1.042c3.56-0.693,7.112-1.7,10.635-2.93c3.524-1.229,7.022-2.675,10.496-4.271      c6.951-3.196,13.801-6.989,20.674-11.013c3.438-2.012,6.882-4.085,10.367-6.167c1.743-1.04,3.493-2.085,5.265-3.117      c1.765-1.022,3.535-2.047,5.311-3.075c7.04-4.12,13.867-8.522,20.878-12.511c6.996-3.992,14.225-7.577,21.829-9.911      c3.799-1.157,7.681-1.982,11.578-2.418c3.9-0.409,7.808-0.421,11.63-0.041c3.86,0.382,7.587,1.27,11.143,2.497      c3.551,1.24,6.951,2.821,10.063,4.825c1.556,0.999,3.043,2.095,4.436,3.292c1.392,1.2,2.675,2.518,3.837,3.926      c1.156,1.411,2.201,2.913,3.046,4.517c0.852,1.598,1.542,3.27,2.057,4.981c0.488,1.719,0.804,3.466,0.969,5.21      c0.023,0.436,0.046,0.872,0.068,1.307c0.009,0.217,0.025,0.435,0.028,0.651l-0.004,0.648c-0.002,0.431-0.001,0.861-0.033,1.291      c-0.03,0.429-0.034,0.858-0.086,1.284c-0.293,3.417-1.233,6.727-2.67,9.715c-1.43,3.001-3.418,5.632-5.647,7.887      c-1.128,1.118-2.324,2.136-3.559,3.071c-1.236,0.935-2.531,1.754-3.836,2.517c-2.629,1.491-5.344,2.675-8.074,3.574      c-2.728,0.909-5.459,1.574-8.149,2.045c-2.683,0.464-5.326,0.779-7.911,0.956c-0.647,0.034-1.288,0.094-1.927,0.106      c-0.639,0.018-1.274,0.036-1.904,0.054c-0.631-0.003-1.257-0.005-1.879-0.008c-0.622-0.002-1.239-0.04-1.852-0.059      c-2.45-0.112-4.823-0.348-7.104-0.696c-2.28-0.361-4.466-0.826-6.555-1.364c-2.088-0.542-4.069-1.182-5.956-1.847      c-1.88-0.684-3.663-1.407-5.343-2.159c-3.363-1.502-6.319-3.108-8.921-4.635c-5.197-3.075-8.978-5.845-11.524-7.73      c-1.267-0.953-2.227-1.687-2.865-2.191C567.753,234.614,567.426,234.358,567.426,234.358z" />
			</g>
			<g>
				
					<linearGradient id="SVGID_00000128484507325879997200000013943326591726462646_" gradientUnits="userSpaceOnUse" x1="526.5599" y1="228.9789" x2="606.9121" y2="228.9789">
					<stop offset="0" style="stop-color:#B3AF82" />
					<stop offset="0.1507" style="stop-color:#B3AF82" />
					<stop offset="0.316" style="stop-color:#9E9A6E" />
					<stop offset="0.6129" style="stop-color:#857F55" />
					<stop offset="0.7204" style="stop-color:#555533" />
					<stop offset="0.8387" style="stop-color:#857F55" />
					<stop offset="1" style="stop-color:#B3AF82" />
				</linearGradient>
				<path style="fill:url(#SVGID_00000128484507325879997200000013943326591726462646_);" d="M606.912,209.318      c0,0-0.315,0.048-0.91,0.14c-0.297,0.048-0.666,0.094-1.099,0.17c-0.432,0.08-0.93,0.172-1.489,0.276      c-2.233,0.436-5.422,1.243-9.194,2.65c-3.776,1.399-8.104,3.457-12.748,6.066c-4.648,2.606-9.614,5.758-14.912,9.033      c-2.651,1.634-5.265,3.213-7.842,4.673c-1.287,0.731-2.565,1.432-3.831,2.097c-1.236,0.658-2.446,1.303-3.629,1.934      c-4.698,2.561-8.923,5.007-12.569,6.898c-0.454,0.238-0.897,0.471-1.33,0.697c-0.438,0.217-0.865,0.429-1.281,0.635      c-0.83,0.406-1.614,0.789-2.349,1.148c-1.497,0.663-2.773,1.248-3.838,1.68c-2.147,0.829-3.332,1.263-3.332,1.263      s1.094-0.653,3.067-1.792c0.978-0.588,2.149-1.352,3.522-2.2c0.675-0.448,1.396-0.927,2.159-1.434      c0.382-0.253,0.775-0.512,1.178-0.779c0.4-0.275,0.81-0.556,1.23-0.844c1.688-1.158,3.53-2.421,5.502-3.774      c0.995-0.678,2.022-1.379,3.091-2.091c1.078-0.704,2.181-1.436,3.332-2.165c1.157-0.712,2.365-1.458,3.57-2.179      c1.202-0.712,2.423-1.453,3.664-2.217c2.489-1.544,5.062-3.141,7.698-4.776c5.297-3.275,10.487-6.288,15.43-8.647      c4.94-2.363,9.623-4.055,13.659-5.037c4.037-0.993,7.383-1.342,9.683-1.429c0.574-0.014,1.085-0.026,1.529-0.036      c0.442-0.005,0.817,0.012,1.119,0.016C606.594,209.311,606.912,209.318,606.912,209.318z" />
			</g>
			<g>
				
					<linearGradient id="SVGID_00000015323789156507780610000014915109754545744523_" gradientUnits="userSpaceOnUse" x1="517.1845" y1="215.8157" x2="597.5368" y2="215.8157">
					<stop offset="0" style="stop-color:#B3AF82" />
					<stop offset="0.1507" style="stop-color:#B3AF82" />
					<stop offset="0.316" style="stop-color:#9E9A6E" />
					<stop offset="0.6129" style="stop-color:#857F55" />
					<stop offset="0.7204" style="stop-color:#555533" />
					<stop offset="0.8387" style="stop-color:#857F55" />
					<stop offset="1" style="stop-color:#B3AF82" />
				</linearGradient>
				<path style="fill:url(#SVGID_00000015323789156507780610000014915109754545744523_);" d="M597.537,196.155      c0,0-0.315,0.048-0.91,0.14c-0.297,0.048-0.666,0.094-1.099,0.17c-0.432,0.08-0.93,0.172-1.489,0.276      c-2.233,0.436-5.422,1.243-9.194,2.65c-3.777,1.399-8.104,3.457-12.748,6.066c-4.649,2.606-9.614,5.757-14.913,9.033      c-2.651,1.634-5.265,3.213-7.842,4.673c-1.287,0.731-2.565,1.432-3.831,2.097c-1.236,0.658-2.446,1.303-3.629,1.934      c-4.698,2.561-8.923,5.007-12.569,6.898c-0.454,0.238-0.897,0.471-1.33,0.697c-0.438,0.217-0.865,0.429-1.28,0.635      c-0.83,0.406-1.614,0.789-2.349,1.148c-1.497,0.663-2.773,1.247-3.838,1.68c-2.147,0.828-3.333,1.263-3.333,1.263      s1.094-0.653,3.067-1.792c0.978-0.588,2.149-1.352,3.522-2.199c0.675-0.448,1.396-0.927,2.159-1.434      c0.382-0.253,0.775-0.512,1.178-0.779c0.4-0.274,0.81-0.556,1.23-0.844c1.688-1.158,3.53-2.421,5.502-3.773      c0.995-0.678,2.022-1.379,3.091-2.091c1.078-0.705,2.181-1.436,3.332-2.165c1.157-0.712,2.365-1.458,3.57-2.179      c1.202-0.712,2.423-1.453,3.664-2.217c2.489-1.544,5.062-3.141,7.698-4.776c5.298-3.275,10.487-6.288,15.43-8.647      c4.94-2.363,9.623-4.055,13.659-5.037c4.037-0.993,7.383-1.342,9.683-1.429c0.574-0.014,1.085-0.026,1.529-0.036      c0.442-0.005,0.817,0.012,1.119,0.016C597.219,196.147,597.537,196.155,597.537,196.155z" />
			</g>
		</g>
		<g>
			<g>
				<g>
					
						<linearGradient id="SVGID_00000138541728892149491700000014344488006610138765_" gradientUnits="userSpaceOnUse" x1="935.0655" y1="225.741" x2="969.3099" y2="225.741">
						<stop offset="0" style="stop-color:#B3AF82" />
						<stop offset="0.1507" style="stop-color:#B3AF82" />
						<stop offset="0.316" style="stop-color:#9E9A6E" />
						<stop offset="0.6129" style="stop-color:#857F55" />
						<stop offset="0.7204" style="stop-color:#555533" />
						<stop offset="0.8387" style="stop-color:#857F55" />
						<stop offset="1" style="stop-color:#B3AF82" />
					</linearGradient>
					<path style="fill:url(#SVGID_00000138541728892149491700000014344488006610138765_);" d="M969.31,225.588       c0,0-4.376-23.764-34.244,0.137C935.065,225.725,963.224,249.869,969.31,225.588z M962.444,225.721       c0.003,0.629-0.506,1.141-1.135,1.144c-0.629,0.003-1.141-0.506-1.144-1.135c-0.003-0.629,0.506-1.142,1.135-1.144       C961.929,224.584,962.441,225.092,962.444,225.721z M942.471,225.769c0,0,1.925-7.153,15.63-0.063       C958.1,225.707,945.322,233.046,942.471,225.769z" />
				</g>
				
					<linearGradient id="SVGID_00000078750156207500106200000001731439183097786286_" gradientUnits="userSpaceOnUse" x1="929.6944" y1="225.8394" x2="935.9887" y2="225.8394">
					<stop offset="0" style="stop-color:#B3AF82" />
					<stop offset="0.1507" style="stop-color:#B3AF82" />
					<stop offset="0.316" style="stop-color:#9E9A6E" />
					<stop offset="0.6129" style="stop-color:#857F55" />
					<stop offset="0.7204" style="stop-color:#555533" />
					<stop offset="0.8387" style="stop-color:#857F55" />
					<stop offset="1" style="stop-color:#B3AF82" />
				</linearGradient>
				<path style="fill:url(#SVGID_00000078750156207500106200000001731439183097786286_);" d="M932.854,228.987      c-1.738,0.007-3.153-1.396-3.16-3.135l0,0c-0.007-1.738,1.396-3.153,3.135-3.16l0,0c1.738-0.007,3.153,1.396,3.16,3.135l0,0      C935.996,227.565,934.592,228.98,932.854,228.987L932.854,228.987z" />
				
					<linearGradient id="SVGID_00000124163041215072994310000002812304742064023940_" gradientUnits="userSpaceOnUse" x1="905.5157" y1="225.9362" x2="911.8101" y2="225.9362">
					<stop offset="0" style="stop-color:#B3AF82" />
					<stop offset="0.1507" style="stop-color:#B3AF82" />
					<stop offset="0.316" style="stop-color:#9E9A6E" />
					<stop offset="0.6129" style="stop-color:#857F55" />
					<stop offset="0.7204" style="stop-color:#555533" />
					<stop offset="0.8387" style="stop-color:#857F55" />
					<stop offset="1" style="stop-color:#B3AF82" />
				</linearGradient>
				<path style="fill:url(#SVGID_00000124163041215072994310000002812304742064023940_);" d="M908.675,229.083      c-1.738,0.007-3.153-1.396-3.16-3.135l0,0c-0.007-1.738,1.396-3.153,3.135-3.16l0,0c1.738-0.007,3.153,1.396,3.16,3.135l0,0      C911.817,227.662,910.414,229.076,908.675,229.083L908.675,229.083z" />
				
					<linearGradient id="SVGID_00000142139191668176943630000001363926873655846809_" gradientUnits="userSpaceOnUse" x1="909.9645" y1="225.888" x2="931.4246" y2="225.888">
					<stop offset="0" style="stop-color:#B3AF82" />
					<stop offset="0.1507" style="stop-color:#B3AF82" />
					<stop offset="0.316" style="stop-color:#9E9A6E" />
					<stop offset="0.6129" style="stop-color:#857F55" />
					<stop offset="0.7204" style="stop-color:#555533" />
					<stop offset="0.8387" style="stop-color:#857F55" />
					<stop offset="1" style="stop-color:#B3AF82" />
				</linearGradient>
				<path style="fill:url(#SVGID_00000142139191668176943630000001363926873655846809_);" d="M920.751,234.227      c0,0,10.768-8.339,10.673-8.382c0.094-0.044-10.74-8.297-10.74-8.297c-1.254,2.727-10.737,8.371-10.718,8.382      C909.812,226.02,919.474,231.511,920.751,234.227z" />
				<g>
					
						<linearGradient id="SVGID_00000107582326060030045580000005745009765376706965_" gradientUnits="userSpaceOnUse" x1="617.6242" y1="225.8084" x2="639.9246" y2="225.8084">
						<stop offset="0" style="stop-color:#B3AF82" />
						<stop offset="0.1507" style="stop-color:#B3AF82" />
						<stop offset="0.316" style="stop-color:#9E9A6E" />
						<stop offset="0.6129" style="stop-color:#857F55" />
						<stop offset="0.7204" style="stop-color:#555533" />
						<stop offset="0.8387" style="stop-color:#857F55" />
						<stop offset="1" style="stop-color:#B3AF82" />
					</linearGradient>
					<path style="fill:url(#SVGID_00000107582326060030045580000005745009765376706965_);" d="M639.925,225.798       c-19.451-15.564-22.3-0.089-22.3-0.089C621.588,241.521,639.925,225.798,639.925,225.798z M622.841,225.056       c0.41,0.002,0.741,0.335,0.739,0.745c-0.002,0.41-0.335,0.741-0.745,0.739c-0.41-0.002-0.741-0.335-0.739-0.745       C622.097,225.386,622.431,225.055,622.841,225.056z M624.924,225.786c8.925-4.618,10.178,0.041,10.178,0.041       C633.245,230.566,624.924,225.786,624.924,225.786z" />
				</g>
				
					<linearGradient id="SVGID_00000062159965197497839100000003764810128056832431_" gradientUnits="userSpaceOnUse" x1="639.3234" y1="225.8726" x2="643.4224" y2="225.8726">
					<stop offset="0" style="stop-color:#B3AF82" />
					<stop offset="0.1507" style="stop-color:#B3AF82" />
					<stop offset="0.316" style="stop-color:#9E9A6E" />
					<stop offset="0.6129" style="stop-color:#857F55" />
					<stop offset="0.7204" style="stop-color:#555533" />
					<stop offset="0.8387" style="stop-color:#857F55" />
					<stop offset="1" style="stop-color:#B3AF82" />
				</linearGradient>
				<path style="fill:url(#SVGID_00000062159965197497839100000003764810128056832431_);" d="M641.365,227.922      c1.132,0.004,2.053-0.91,2.058-2.041l0,0c0.004-1.132-0.909-2.053-2.041-2.058l0,0c-1.132-0.005-2.053,0.909-2.058,2.041l0,0      C639.319,226.996,640.233,227.917,641.365,227.922L641.365,227.922z" />
			</g>
			
				<linearGradient id="SVGID_00000163757515056727144160000017320850548853853324_" gradientUnits="userSpaceOnUse" x1="643.4224" y1="225.9362" x2="908.6629" y2="225.9362">
				<stop offset="0" style="stop-color:#B3AF82" />
				<stop offset="0.1507" style="stop-color:#B3AF82" />
				<stop offset="0.316" style="stop-color:#9E9A6E" />
				<stop offset="0.6129" style="stop-color:#857F55" />
				<stop offset="0.7204" style="stop-color:#555533" />
				<stop offset="0.8387" style="stop-color:#857F55" />
				<stop offset="1" style="stop-color:#B3AF82" />
			</linearGradient>
			
				<rect x="643.422" y="224.823" style="fill:url(#SVGID_00000163757515056727144160000017320850548853853324_);" width="265.241" height="2.227" />
		</g>
		<g>
			
				<linearGradient id="SVGID_00000102529690998776868950000013628874232876550311_" gradientUnits="userSpaceOnUse" x1="152.6901" y1="225.741" x2="186.9344" y2="225.741">
				<stop offset="0" style="stop-color:#B3AF82" />
				<stop offset="0.1507" style="stop-color:#B3AF82" />
				<stop offset="0.316" style="stop-color:#9E9A6E" />
				<stop offset="0.6129" style="stop-color:#857F55" />
				<stop offset="0.7204" style="stop-color:#555533" />
				<stop offset="0.8387" style="stop-color:#857F55" />
				<stop offset="1" style="stop-color:#B3AF82" />
			</linearGradient>
			<path style="fill:url(#SVGID_00000102529690998776868950000013628874232876550311_);" d="M186.934,225.725     c-29.869-23.901-34.244-0.137-34.244-0.137C158.776,249.869,186.934,225.725,186.934,225.725z M160.7,224.586     c0.629,0.003,1.138,0.515,1.135,1.144c-0.003,0.629-0.515,1.137-1.144,1.135s-1.137-0.515-1.135-1.144     C159.559,225.092,160.071,224.584,160.7,224.586z M163.9,225.707c13.705-7.091,15.63,0.063,15.63,0.063     C176.678,233.046,163.9,225.707,163.9,225.707z" />
		</g>
		
			<linearGradient id="SVGID_00000142172983657945580160000005515565004531143301_" gradientUnits="userSpaceOnUse" x1="186.0112" y1="225.8394" x2="192.3056" y2="225.8394">
			<stop offset="0" style="stop-color:#B3AF82" />
			<stop offset="0.1507" style="stop-color:#B3AF82" />
			<stop offset="0.316" style="stop-color:#9E9A6E" />
			<stop offset="0.6129" style="stop-color:#857F55" />
			<stop offset="0.7204" style="stop-color:#555533" />
			<stop offset="0.8387" style="stop-color:#857F55" />
			<stop offset="1" style="stop-color:#B3AF82" />
		</linearGradient>
		<path style="fill:url(#SVGID_00000142172983657945580160000005515565004531143301_);" d="M189.146,228.987    c1.738,0.007,3.153-1.396,3.16-3.135l0,0c0.007-1.738-1.396-3.153-3.135-3.16l0,0c-1.738-0.007-3.153,1.396-3.16,3.135l0,0    C186.004,227.565,187.408,228.98,189.146,228.987L189.146,228.987z" />
		
			<linearGradient id="SVGID_00000151543709749671792820000002128072303301290373_" gradientUnits="userSpaceOnUse" x1="210.1899" y1="225.9362" x2="216.4842" y2="225.9362">
			<stop offset="0" style="stop-color:#B3AF82" />
			<stop offset="0.1507" style="stop-color:#B3AF82" />
			<stop offset="0.316" style="stop-color:#9E9A6E" />
			<stop offset="0.6129" style="stop-color:#857F55" />
			<stop offset="0.7204" style="stop-color:#555533" />
			<stop offset="0.8387" style="stop-color:#857F55" />
			<stop offset="1" style="stop-color:#B3AF82" />
		</linearGradient>
		<path style="fill:url(#SVGID_00000151543709749671792820000002128072303301290373_);" d="M213.324,229.083    c1.738,0.007,3.153-1.396,3.16-3.135l0,0c0.007-1.738-1.396-3.153-3.135-3.16l0,0c-1.738-0.007-3.153,1.396-3.16,3.135l0,0    C210.183,227.662,211.586,229.076,213.324,229.083L213.324,229.083z" />
		
			<linearGradient id="SVGID_00000072991202943946631720000002215660229954682010_" gradientUnits="userSpaceOnUse" x1="190.5754" y1="225.888" x2="212.0353" y2="225.888">
			<stop offset="0" style="stop-color:#B3AF82" />
			<stop offset="0.1507" style="stop-color:#B3AF82" />
			<stop offset="0.316" style="stop-color:#9E9A6E" />
			<stop offset="0.6129" style="stop-color:#857F55" />
			<stop offset="0.7204" style="stop-color:#555533" />
			<stop offset="0.8387" style="stop-color:#857F55" />
			<stop offset="1" style="stop-color:#B3AF82" />
		</linearGradient>
		<path style="fill:url(#SVGID_00000072991202943946631720000002215660229954682010_);" d="M201.249,234.227    c0,0-10.768-8.339-10.673-8.382c-0.094-0.044,10.74-8.297,10.74-8.297c1.254,2.727,10.737,8.371,10.717,8.382    C212.189,226.02,202.525,231.511,201.249,234.227z" />
		<g>
			
				<linearGradient id="SVGID_00000139269806281945743940000003663874996961443979_" gradientUnits="userSpaceOnUse" x1="482.0753" y1="225.8084" x2="504.3757" y2="225.8084">
				<stop offset="0" style="stop-color:#B3AF82" />
				<stop offset="0.1507" style="stop-color:#B3AF82" />
				<stop offset="0.316" style="stop-color:#9E9A6E" />
				<stop offset="0.6129" style="stop-color:#857F55" />
				<stop offset="0.7204" style="stop-color:#555533" />
				<stop offset="0.8387" style="stop-color:#857F55" />
				<stop offset="1" style="stop-color:#B3AF82" />
			</linearGradient>
			<path style="fill:url(#SVGID_00000139269806281945743940000003663874996961443979_);" d="M504.376,225.709     c0,0-2.849-15.475-22.3,0.089C482.075,225.798,500.412,241.521,504.376,225.709z M499.904,225.796     c0.002,0.41-0.329,0.743-0.739,0.745c-0.41,0.002-0.743-0.329-0.745-0.739c-0.002-0.41,0.329-0.743,0.739-0.745     S499.903,225.386,499.904,225.796z M486.898,225.827c0,0,1.254-4.658,10.178-0.041     C497.076,225.786,488.754,230.566,486.898,225.827z" />
		</g>
		
			<linearGradient id="SVGID_00000116934053333370551560000012790580136418112181_" gradientUnits="userSpaceOnUse" x1="478.5775" y1="225.8726" x2="482.6765" y2="225.8726">
			<stop offset="0" style="stop-color:#B3AF82" />
			<stop offset="0.1507" style="stop-color:#B3AF82" />
			<stop offset="0.316" style="stop-color:#9E9A6E" />
			<stop offset="0.6129" style="stop-color:#857F55" />
			<stop offset="0.7204" style="stop-color:#555533" />
			<stop offset="0.8387" style="stop-color:#857F55" />
			<stop offset="1" style="stop-color:#B3AF82" />
		</linearGradient>
		<path style="fill:url(#SVGID_00000116934053333370551560000012790580136418112181_);" d="M480.635,227.922    c-1.132,0.004-2.053-0.91-2.058-2.041l0,0c-0.004-1.132,0.909-2.053,2.041-2.058l0,0c1.132-0.005,2.053,0.909,2.058,2.041l0,0    C482.681,226.996,481.767,227.917,480.635,227.922L480.635,227.922z" />
		
			<linearGradient id="SVGID_00000021119851608869219630000002917733552812655034_" gradientUnits="userSpaceOnUse" x1="213.337" y1="225.9362" x2="478.5775" y2="225.9362">
			<stop offset="0" style="stop-color:#B3AF82" />
			<stop offset="0.1507" style="stop-color:#B3AF82" />
			<stop offset="0.316" style="stop-color:#9E9A6E" />
			<stop offset="0.6129" style="stop-color:#857F55" />
			<stop offset="0.7204" style="stop-color:#555533" />
			<stop offset="0.8387" style="stop-color:#857F55" />
			<stop offset="1" style="stop-color:#B3AF82" />
		</linearGradient>
		
			<rect x="213.337" y="224.823" style="fill:url(#SVGID_00000021119851608869219630000002917733552812655034_);" width="265.241" height="2.227" />
	</g>
	
</g>
</svg>