<svg version="1.0" xmlns="http://www.w3.org/2000/svg"
 width="1135.000000pt" height="1280.000000pt" viewBox="0 0 1135.000000 1280.000000"
 preserveAspectRatio="xMidYMid meet">
<metadata>
Created by potrace 1.15, written by Peter Selinger 2001-2017
</metadata>
<g transform="translate(0.000000,1280.000000) scale(0.100000,-0.100000)"
fill="#555533" stroke="none">
<path d="M9885 12789 c-99 -10 -389 -61 -481 -85 -133 -34 -216 -87 -258 -164
-40 -73 -38 -119 9 -216 72 -149 196 -246 508 -393 78 -37 153 -72 167 -77 18
-8 -37 -11 -205 -11 -253 0 -388 -11 -570 -48 -216 -43 -416 -111 -473 -160
-23 -20 -25 -26 -16 -51 8 -26 14 -29 49 -28 23 1 82 19 137 43 110 47 289
100 446 133 155 32 450 32 602 -1 282 -60 598 -203 785 -354 171 -138 320
-333 375 -490 45 -127 36 -352 -20 -498 -59 -157 -295 -413 -567 -617 -192
-143 -337 -241 -570 -385 -164 -101 -226 -137 -237 -137 -2 0 -14 21 -27 48
-40 83 -156 186 -322 285 -81 48 -157 87 -167 87 -37 0 -20 -34 35 -73 104
-72 184 -211 226 -395 12 -51 20 -94 18 -95 -2 -2 -67 -39 -144 -82 -537 -301
-1138 -734 -1566 -1127 -100 -92 -309 -314 -424 -453 -123 -147 -364 -474
-508 -691 -78 -117 -145 -213 -149 -214 -4 0 -45 25 -92 55 -197 129 -459 246
-691 310 -602 166 -1167 211 -1614 129 -47 -9 -132 -17 -190 -19 -216 -5 -460
-80 -896 -272 -301 -132 -516 -250 -805 -443 -802 -533 -1305 -1021 -1843
-1786 -149 -213 -208 -307 -267 -424 -176 -351 -183 -644 -20 -861 27 -36 69
-82 93 -102 24 -19 70 -76 103 -126 32 -50 65 -91 72 -91 31 0 22 35 -33 117
l-57 86 11 87 c15 120 14 182 -10 461 -38 449 -12 568 189 871 215 324 389
536 681 832 258 262 489 458 821 697 356 257 596 405 884 545 180 87 248 113
435 164 113 30 152 35 89 10 -52 -21 -243 -127 -337 -188 -264 -170 -418 -305
-584 -512 -262 -325 -415 -680 -434 -1000 -10 -184 29 -496 92 -723 41 -150
112 -321 188 -449 228 -387 735 -912 1087 -1126 138 -83 377 -202 408 -202 55
0 91 76 62 130 -6 11 -33 26 -60 34 -81 24 -163 73 -281 168 -61 49 -148 117
-193 150 -238 181 -516 449 -691 668 -205 255 -336 529 -401 834 -38 179 -45
470 -15 645 58 340 242 678 542 995 189 200 381 328 654 439 201 82 506 167
757 212 314 55 731 42 1100 -34 463 -96 791 -241 1100 -484 16 -13 14 -21 -33
-108 -200 -373 -332 -743 -416 -1164 -26 -130 -28 -157 -28 -382 l0 -242 -27
87 c-67 216 -229 474 -401 639 -70 68 -103 90 -189 132 -153 73 -213 86 -398
85 -123 0 -175 -5 -250 -23 -219 -51 -302 -88 -580 -257 -114 -69 -160 -102
-160 -115 0 -30 26 -23 120 32 213 122 361 167 580 176 305 12 488 -54 675
-241 226 -226 371 -500 439 -823 71 -341 56 -703 -41 -998 -112 -340 -241
-581 -418 -774 -81 -90 -119 -146 -131 -196 -4 -16 -47 -89 -95 -161 -112
-168 -249 -390 -324 -524 -32 -58 -80 -142 -107 -187 -58 -98 -101 -198 -130
-308 -19 -69 -22 -107 -23 -270 0 -173 4 -212 39 -440 22 -137 45 -256 52
-264 25 -28 32 0 32 131 -1 212 18 295 176 783 108 332 118 356 248 600 138
258 209 378 403 679 122 189 312 442 470 626 195 227 659 788 761 921 201 260
368 511 468 701 48 91 136 331 166 455 21 86 328 439 785 902 380 386 543 517
799 641 167 81 231 101 351 107 115 6 146 -4 190 -61 28 -37 89 -67 187 -92
85 -22 239 -14 326 16 65 23 212 112 212 129 0 6 -21 27 -46 48 -30 25 -58 62
-81 108 -97 192 -187 307 -280 357 -115 61 -309 79 -433 39 -130 -42 -250
-135 -352 -274 -269 -368 -442 -560 -801 -887 -210 -192 -547 -549 -740 -785
-88 -107 -90 -109 -83 -70 3 22 9 92 12 155 15 280 -71 566 -234 779 -78 102
-247 277 -356 368 -50 42 -93 80 -94 85 -5 12 181 291 299 449 335 450 637
760 1057 1082 438 337 691 500 1182 763 91 49 167 90 171 92 15 7 -15 -274
-45 -419 -47 -226 -111 -392 -231 -604 -170 -301 -348 -541 -545 -735 -229
-226 -424 -367 -676 -490 -180 -88 -218 -116 -254 -187 -47 -94 -26 -144 68
-164 73 -15 141 0 208 45 71 48 316 268 466 419 443 445 635 709 893 1227 229
462 312 693 360 1005 l6 40 227 125 c233 129 591 337 697 405 357 228 529 370
655 536 209 278 236 610 75 929 -62 123 -112 188 -249 326 -275 274 -543 436
-795 479 -84 15 -116 28 -290 115 -402 201 -541 300 -606 435 -40 82 -43 118
-11 160 62 81 143 131 291 178 146 47 275 62 545 62 286 0 365 -12 498 -76 96
-46 202 -141 202 -180 -1 -70 -85 -178 -167 -215 -49 -21 -66 -45 -44 -58 5
-4 22 -1 38 5 15 6 69 26 118 43 163 59 227 119 227 214 0 124 -124 228 -338
282 -135 35 -555 50 -779 29z m-3164 -6799 c154 -204 226 -395 236 -630 13
-309 -92 -624 -364 -1088 -165 -281 -430 -679 -443 -665 -5 4 -26 67 -49 138
-117 380 -145 693 -90 1015 73 423 169 789 284 1080 44 112 135 305 172 369
l26 45 75 -79 c41 -44 110 -127 153 -185z m-751 -1907 c0 -34 76 -328 114
-440 l34 -101 -171 -241 c-94 -132 -172 -239 -174 -238 -1 2 24 88 57 193 93
292 122 459 124 715 1 86 4 152 8 145 4 -6 8 -21 8 -33z"/>
<path d="M9103 4679 l-92 -71 -93 15 c-276 45 -484 20 -691 -84 -163 -82 -228
-134 -553 -434 -240 -223 -377 -364 -511 -525 -97 -117 -480 -508 -604 -616
-234 -203 -409 -377 -409 -405 0 -23 51 -60 78 -57 22 2 33 15 62 74 69 139
203 289 376 421 177 134 496 311 699 386 66 25 239 91 385 147 146 56 328 123
405 150 77 27 177 65 223 84 337 145 531 361 631 704 16 57 31 105 33 106 57
36 198 152 195 160 -9 27 -48 11 -134 -55z"/>
</g>
</svg>
